<svg height="512" width="512" viewBox="0 0 512 512">
  <g>
    <path
       id="path2"
       fill="#d3c6aa"
       d="m 197.73102,203.05537 c 10.92625,-6.72263 21.0102,-11.76629 29.41347,-15.12757 8.40327,-3.36134 15.1276,-5.04201 21.01018,-5.04201 11.76629,0 21.01019,4.20137 27.7345,11.76629 6.7249,7.56266 10.08394,18.48892 10.08394,31.93417 v 83.20014 l 5.04196,5.04195 15.96823,1.68067 v 10.92395 h -63.87059 v -10.92395 l 13.44695,-1.68067 5.04196,-5.04195 v -77.31757 c 0,-10.08562 -2.52071,-17.64886 -6.7249,-22.69083 -4.20135,-5.04195 -10.92625,-7.56266 -20.16956,-7.56266 -4.20135,0 -9.24333,0.84004 -15.12761,2.52071 -5.88199,1.68066 -11.76628,4.20133 -18.4889,7.56266 v 98.32772 l 5.04195,5.04197 14.28528,1.68066 V 328.273 h -63.02827 v -10.92395 l 14.2853,-1.68066 5.04196,-5.04197 v -77.31756 c 0,-10.08562 -2.52072,-17.64887 -6.72488,-22.69083 -4.20136,-5.04195 -10.92624,-7.56266 -19.32953,-7.56266 -5.04196,0 -10.08396,0.84005 -15.12762,2.52071 -5.04367,1.68066 -11.76629,4.20134 -17.64888,7.56266 v 98.32772 l 5.04196,5.04197 14.28529,1.68066 v 10.92395 H 72.506558 v -10.92395 l 15.968248,-1.68066 5.041952,-5.04197 V 205.57608 h -21.0102 v -9.24334 l 34.457162,-10.08561 h 10.92624 v 15.9682 c 10.08391,-5.882 19.32949,-10.08562 26.89217,-13.44695 7.56266,-2.52071 14.28529,-4.20134 20.16957,-4.20134 7.56267,0 13.44695,1.68063 19.32954,5.04196 5.04425,2.52071 10.08562,6.72263 13.44919,13.44695 z m 233.60654,-27.07303 c -76.47748,0 -95.80474,66.39127 -95.80474,95.80702 0,36.13778 27.73279,59.66864 71.43324,59.66864 77.31753,0 95.80702,-68.07194 95.80702,-93.28405 0,-39.50137 -25.21153,-62.1922 -71.43552,-62.1922 z M 409.48962,305.4036 c -14.2853,0 -22.69086,-9.24562 -22.69086,-25.21383 0,-11.76459 7.56271,-78.15814 43.70107,-78.15814 15.96593,0 23.53086,9.24558 22.69084,27.73452 0,8.40554 -6.72491,75.63686 -43.70105,75.63686 z M 9.2269186,48 V 464 H 425.22694 l -0.0122,-93.59971 h -27.02932 v 66.5602 H 34.692607 V 75.040642 H 398.18678 v 66.560198 h 27.02985 l 0.0122,-93.599716 z"
       style="stroke-width:0.0752408"/>
  </g>
</svg>
