<svg
   width="195.254"
   height="192">
  <path
     fill-rule="evenodd"
     clip-rule="evenodd"
     d="M 97.707783,-1.9300808e-7 C 43.677903,-1.9300808e-7 6.0693063e-7,43.999816 6.0693063e-7,98.433588 6.0693063e-7,141.94541 27.985938,178.77725 66.809852,191.8132 c 4.853989,0.97999 6.631985,-2.11799 6.631985,-4.72398 0,-2.28199 -0.16,-10.10396 -0.16,-18.25393 C 46.101898,174.70327 40.441911,157.10134 40.441911,157.10134 36.07392,145.69339 29.601935,142.7614 29.601935,142.7614 c -8.89598,-6.02997 0.647998,-6.02997 0.647998,-6.02997 9.867978,0.652 15.045967,10.10396 15.045967,10.10396 8.73398,14.99193 22.807949,10.75595 28.469936,8.14796 0.807998,-6.35597 3.397992,-10.75595 6.147986,-13.19994 -21.677951,-2.28199 -44.4859,-10.75596 -44.4859,-48.5658 0,-10.755955 3.879991,-19.555918 10.027977,-26.399889 -0.969997,-2.44399 -4.36799,-12.549948 0.971998,-26.075891 0,0 8.249982,-2.607989 26.85194,10.103957 a 93.93979,93.939607 0 0 1 24.427946,-3.259986 c 8.249977,0 16.659957,1.141995 24.425947,3.259986 18.60396,-12.711946 26.85394,-10.103957 26.85394,-10.103957 5.33998,13.525943 1.93999,23.631901 0.96999,26.075891 6.30999,6.843971 10.02998,15.643934 10.02998,26.399889 0,37.80984 -22.80795,46.11981 -44.6479,48.5658 3.55999,3.09598 6.63199,8.96196 6.63199,18.25192 0,13.19995 -0.16,23.7939 -0.16,27.05189 0,2.60799 1.77999,5.70597 6.63198,4.72798 38.82392,-13.03995 66.80985,-49.86979 66.80985,-93.381612 C 195.41356,43.999816 151.57566,-1.9300808e-7 97.707783,-1.9300808e-7 Z"
     fill="#d4be98"
     id="path2"
     style="stroke-width:1.99999" />
</svg>
